<svg width="40" height="40" viewBox="0 0 40 40" fill="none" xmlns="http://www.w3.org/2000/svg">
<path fill-rule="evenodd" clip-rule="evenodd" d="M19.5195 3.5C22.1122 3.5 24.244 5.47334 24.4948 8H14.5442C14.7951 5.47334 16.9268 3.5 19.5195 3.5ZM12.0359 8C12.2932 4.09098 15.5454 1 19.5195 1C23.4936 1 26.7458 4.09098 27.0031 8H30.377C32.4415 8 34.1668 9.57116 34.3595 11.6266L35.9945 29.0666C36.5444 34.9324 31.9297 40 26.0382 40H13.0009C7.10933 40 2.4946 34.9324 3.04452 29.0666L4.67952 11.6266C4.87222 9.57116 6.59756 8 8.66205 8H12.0359ZM7.1686 11.86C7.24086 11.0892 7.88787 10.5 8.66205 10.5H30.377C31.1512 10.5 31.7982 11.0892 31.8704 11.86L33.5054 29.2999C33.9179 33.6993 30.4568 37.5 26.0382 37.5H13.0009C8.58221 37.5 5.12117 33.6993 5.53361 29.2999L7.1686 11.86Z" fill="black"/>
</svg>
