<svg width="40" height="40" viewBox="0 0 40 40" fill="none" xmlns="http://www.w3.org/2000/svg">
<path d="M5.43127 23.0677C5.43127 24.9519 5.78119 26.7176 6.48103 28.3649C7.19164 30.0015 8.16603 31.4442 9.4042 32.6931C10.6424 33.9313 12.0797 34.9003 13.7163 35.6002C15.3636 36.3108 17.1293 36.6661 19.0135 36.6661C20.8977 36.6661 22.6581 36.3108 24.2946 35.6002C25.9419 34.9003 27.3847 33.9313 28.6228 32.6931C29.8718 31.4442 30.8462 30.0015 31.546 28.3649C32.2459 26.7176 32.5958 24.9519 32.5958 23.0677C32.5958 21.1835 32.2459 19.4231 31.546 17.7866C30.8462 16.1393 29.8718 14.6965 28.6228 13.4584C27.3847 12.2202 25.9473 11.2512 24.3108 10.5513C22.6742 9.8515 20.9139 9.50158 19.0297 9.50158C18.6098 9.50158 18.1899 9.52311 17.77 9.56618C17.3608 9.60925 16.9732 9.66846 16.6072 9.74383L20.4832 5.9324C20.6016 5.79244 20.6931 5.6417 20.7577 5.4802C20.8223 5.3187 20.8546 5.14643 20.8546 4.9634C20.8546 4.58656 20.7254 4.26356 20.467 3.99439C20.2194 3.71445 19.9018 3.57449 19.5142 3.57449C19.105 3.57449 18.782 3.71445 18.5452 3.99439L12.2628 10.3737C11.9721 10.6536 11.8267 10.9928 11.8267 11.3911C11.8267 11.768 11.9721 12.1071 12.2628 12.4086L18.5452 18.7233C18.782 18.9817 19.105 19.1109 19.5142 19.1109C19.9018 19.1109 20.2194 18.9817 20.467 18.7233C20.7254 18.4541 20.8546 18.1311 20.8546 17.7543C20.8546 17.5713 20.8223 17.4044 20.7577 17.2536C20.6931 17.0921 20.5962 16.9414 20.467 16.8014L16.1227 12.4894C16.5426 12.3925 16.9948 12.3225 17.4793 12.2794C17.9745 12.2363 18.4913 12.2148 19.0297 12.2148C20.537 12.2148 21.9421 12.4947 23.2449 13.0546C24.5476 13.6145 25.6943 14.3897 26.6848 15.3802C27.6754 16.3708 28.4506 17.5228 29.0104 18.8363C29.5703 20.1499 29.8503 21.5603 29.8503 23.0677C29.8503 24.575 29.5703 25.9855 29.0104 27.299C28.4506 28.6126 27.67 29.7646 26.6687 30.7551C25.6781 31.7457 24.5261 32.5155 23.2126 33.0646C21.9098 33.6245 20.5101 33.9044 19.0135 33.9044C17.5169 33.9044 16.1119 33.6245 14.7983 33.0646C13.4848 32.5155 12.3328 31.7457 11.3422 30.7551C10.3517 29.7646 9.57647 28.6126 9.0166 27.299C8.45673 25.9855 8.17679 24.575 8.17679 23.0677C8.17679 22.6478 8.05298 22.3086 7.80534 22.0502C7.56847 21.7811 7.25085 21.6465 6.85248 21.6465C6.43258 21.6465 6.08805 21.7811 5.81888 22.0502C5.56047 22.3086 5.43127 22.6478 5.43127 23.0677Z" fill="#B8860B"/>
</svg>
